<?xml version="1.0" encoding="utf-8"?>
<!-- Generator: Adobe Illustrator 26.0.2, SVG Export Plug-In . SVG Version: 6.00 Build 0)  -->
<svg version="1.1" id="Layer_1" xmlns="http://www.w3.org/2000/svg" xmlns:xlink="http://www.w3.org/1999/xlink" x="0px" y="0px"
	 viewBox="0 0 1000 1000" style="enable-background:new 0 0 1000 1000;" xml:space="preserve">
<style type="text/css">
	.st0{fill:#C0B387;}
</style>
<g>
	<g>
		<path class="st0" d="M611.4,972c-201.1-1.6-359.1-168.1-356.8-375.6c2.2-200.5,163.8-359.9,362.7-357.8
			c202.4,2.1,359.9,162.7,358.3,365.5C974,808.8,810.9,973.6,611.4,972z M825.9,751.7c0.9-33.5-3.7-68-10.6-102.2
			C793.2,541.9,750.9,443.4,681.2,358C654,324.6,624,293.6,584,274.7c-64.9-30.4-124.1-10.3-157.3,53
			c-18.1,34.3-25.3,71.4-25.4,109.3c-0.5,169.8,60.6,316.2,171.1,443.2c20.7,23.7,45.8,42.8,74.6,56.6c63,29.9,124.4,8.2,154.6-54.6
			C821.2,841.4,826.3,797.9,825.9,751.7z"/>
		<path class="st0" d="M263.3,956.6c-74.3,0-148.6-0.1-223,0.1c-13.8,0-10.5-9.2-10.5-16.6c-0.1-120.9,0-241.8-0.5-362.7
			c-0.1-46.9,7-92.7,22.2-136.9c24.9-72.4,66.4-132.6,130.9-175.4c4.6-3.1,8.8-7.6,17.7-8.1c0,37.8,0,75.3,0,112.7
			c-0.2,155.2-0.2,310.4-0.7,465.6c-0.1,33,6.4,63.3,28.2,89.2C238,936.4,250,946,263.3,956.6z"/>
		<path class="st0" d="M117.4,218c-52.8-1.5-94.1-43.9-92.9-95.3c1.2-54.4,44.4-96.1,97.5-94.6c53.1,1.6,94.9,45.1,93.3,97.3
			C213.5,178.2,169.8,219.5,117.4,218z"/>
	</g>
</g>
</svg>
