<?xml version="1.0" encoding="utf-8"?>
<!-- Generator: Adobe Illustrator 26.0.2, SVG Export Plug-In . SVG Version: 6.00 Build 0)  -->
<svg version="1.1" id="Layer_1" xmlns="http://www.w3.org/2000/svg" xmlns:xlink="http://www.w3.org/1999/xlink" x="0px" y="0px"
	 viewBox="0 0 1369.9 318" style="enable-background:new 0 0 1369.9 318;" xml:space="preserve">
<style type="text/css">
	.st0{fill:#C0B387;}
</style>
<g>
	<g>
		<g>
			<path class="st0" d="M201.5,308.8c-63.3-0.5-113.1-52.9-112.4-118.3c0.7-63.2,51.6-113.4,114.3-112.7
				c63.8,0.7,113.4,51.3,112.9,115.1C315.7,257.4,264.3,309.3,201.5,308.8z M269,239.4c0.3-10.6-1.2-21.4-3.4-32.2
				c-7-33.9-20.3-64.9-42.2-91.8c-8.6-10.5-18-20.3-30.6-26.2c-20.4-9.6-39.1-3.2-49.6,16.7c-5.7,10.8-8,22.5-8,34.4
				c-0.2,53.5,19.1,99.6,53.9,139.6c6.5,7.5,14.4,13.5,23.5,17.8c19.8,9.4,39.2,2.6,48.7-17.2C267.5,267.6,269.2,253.9,269,239.4z"
				/>
			<path class="st0" d="M91.8,303.9c-23.4,0-46.8,0-70.2,0c-4.4,0-3.3-2.9-3.3-5.2c0-38.1,0-76.2-0.2-114.3c0-14.8,2.2-29.2,7-43.1
				C33,118.5,46,99.5,66.3,86.1c1.5-1,2.8-2.4,5.6-2.5c0,11.9,0,23.7,0,35.5c-0.1,48.9-0.1,97.8-0.2,146.7c0,10.4,2,19.9,8.9,28.1
				C83.8,297.6,87.6,300.6,91.8,303.9z"/>
			<path class="st0" d="M45.8,71.2c-16.6-0.5-29.7-13.8-29.3-30c0.4-17.1,14-30.3,30.7-29.8C64,11.9,77.2,25.6,76.7,42.1
				C76.1,58.7,62.3,71.7,45.8,71.2z"/>
		</g>
		<g>
			<path class="st0" d="M371.2,133.3h16.6v116.2h-16.6V133.3z"/>
			<path class="st0" d="M454,147.7h-39.8v-14.4h96.2v14.4h-39.9v101.8H454V147.7z"/>
			<path class="st0" d="M553.7,136.6c0,3.2-0.5,5.6-2.7,11.8l-8,23.2h-10.5l6.1-24.7c-4.2-1.5-7-5.3-7-10.3
				c0-6.6,4.8-11.3,11.1-11.3S553.7,130.1,553.7,136.6z"/>
			<path class="st0" d="M578.2,236.2l6.1-13c8.6,7.8,23.4,13.5,38.4,13.5c20.1,0,28.7-7.8,28.7-17.9c0-28.4-70.4-10.5-70.4-53.6
				c0-17.9,13.9-33.2,44.5-33.2c13.6,0,27.7,3.7,37.4,10.3l-5.5,13.3c-10.1-6.5-21.6-9.5-31.9-9.5c-19.8,0-28.2,8.3-28.2,18.4
				c0,28.4,70.4,10.6,70.4,53.3c0,17.8-14.3,33-45,33C605,250.8,587.5,244.9,578.2,236.2z"/>
			<path class="st0" d="M743.8,191.4c0-34,26.2-59.5,61.9-59.5c35.4,0,61.6,25.2,61.6,59.5c0,34.2-26.2,59.5-61.6,59.5
				C770.1,250.8,743.8,225.4,743.8,191.4z M850.8,191.4c0-25.7-19.3-44.7-45-44.7c-26.1,0-45.3,18.9-45.3,44.7
				c0,25.7,19.3,44.7,45.3,44.7C831.5,236.1,850.8,217.1,850.8,191.4z"/>
			<path class="st0" d="M901.1,133.3h16.6v101.8h62.9v14.4h-79.5V133.3z"/>
			<path class="st0" d="M1008,133.3h16.6v116.2H1008V133.3z"/>
			<path class="st0" d="M1167.6,133.3l-51,116.2h-16.4l-51.1-116.2h17.9l41.8,95.5l42.2-95.5H1167.6z"/>
			<path class="st0" d="M1190.7,133.3h16.6v116.2h-16.6V133.3z"/>
			<path class="st0" d="M1324.6,220.4h-61.8l-12.8,29.1h-17.1l52.6-116.2h16.4l52.9,116.2h-17.4L1324.6,220.4z M1318.8,207.2
				l-25.1-57l-25.1,57H1318.8z"/>
		</g>
	</g>
</g>
</svg>
